<?xml version="1.0" encoding="UTF-8"?><svg xmlns="http://www.w3.org/2000/svg" xmlns:xlink="http://www.w3.org/1999/xlink" height="500.0" preserveAspectRatio="xMidYMid meet" version="1.0" viewBox="0.0 0.0 480.3 500.0" width="480.3" zoomAndPan="magnify"><defs><clipPath id="a"><path d="M 0 0 L 480.328125 0 L 480.328125 500 L 0 500 Z M 0 0"/></clipPath></defs><g><g id="change1_1"><path d="M 259.875 437.109375 C 252.554688 435.011719 246.195312 429.617188 243.128906 426.675781 C 243.128906 426.679688 243.128906 426.675781 243.128906 426.679688 C 243.128906 426.679688 239.058594 434.625 236.894531 436.152344 C 234.734375 437.683594 226.769531 440.429688 221.964844 442.902344 C 217.15625 445.371094 206.3125 446.367188 205.214844 446.96875 C 204.113281 447.570312 203.429688 452.101562 209.195312 453.609375 C 214.960938 455.121094 234.390625 454.296875 236.894531 454.984375 C 239.402344 455.667969 253.609375 458.40625 258.382812 456.902344 C 258.382812 456.902344 259.207031 448.183594 257.128906 443.277344 L 259.878906 437.113281 Z M 160.960938 221.628906 C 160.21875 221.378906 204.894531 190.425781 227.292969 164.433594 C 226.554688 164.125 225.824219 163.785156 225.097656 163.429688 C 225.839844 162.605469 226.566406 161.78125 227.269531 160.96875 C 218.730469 157.394531 210.832031 150.429688 206.738281 146.433594 C 191.363281 164.910156 155.847656 207.203125 152.742188 207.328125 C 148.769531 207.484375 137.847656 207.980469 136.605469 209.71875 C 135.855469 210.765625 135.5625 215.058594 135.714844 219.171875 C 135.617188 222.890625 135.921875 227.3125 136.628906 229.574219 C 137.871094 233.546875 143.085938 235.035156 145.320312 233.546875 C 146.730469 232.605469 147.25 232.257812 147.441406 232.132812 C 147.449219 232.507812 147.464844 232.882812 147.492188 233.242188 C 147.410156 235.191406 147.386719 238.890625 148.296875 239.257812 C 149.539062 239.753906 159.472656 226.59375 160.464844 225.105469 C 161.457031 223.613281 161.707031 221.875 160.960938 221.628906 Z M 198.769531 44.378906 C 198.769531 44.734375 199.816406 45.324219 200.511719 45.355469 C 201.203125 45.382812 203.730469 45.058594 203.800781 45.3125 C 204.25 46.90625 203.664062 49.417969 203.648438 49.5 C 203.46875 50.585938 204.277344 50.894531 205.433594 51.171875 C 205.433594 51.171875 204.515625 53.082031 205.003906 53.765625 C 205.492188 54.445312 207.066406 54.796875 207.191406 55.589844 C 207.316406 56.382812 206.984375 59.496094 207.554688 60.578125 C 209.238281 63.765625 220.460938 61.027344 220.984375 61.496094 C 225.253906 70.828125 226.621094 84.429688 226.621094 84.429688 L 246.125 62.398438 C 246.125 62.398438 240.738281 58.28125 237.015625 49.796875 C 243.839844 36.152344 232.921875 37.519531 232.921875 37.519531 C 226.101562 38.882812 226.101562 32.058594 217.914062 30.695312 C 209.726562 29.328125 203.585938 20.289062 203.585938 20.289062 C 203.585938 20.289062 202.429688 27.898438 202.722656 29.238281 C 203.015625 30.574219 203.730469 32.324219 203.488281 33.402344 C 202.910156 35.992188 198.769531 43.101562 198.769531 44.378906 Z M 304.960938 355.023438 L 297.988281 354.238281 C 299.433594 348.597656 300.289062 343.382812 300.265625 338.976562 C 302.601562 344.003906 304.65625 349.78125 304.960938 355.023438" fill="#f4725c"/></g><g id="change2_1"><path d="M 148.328125 231.535156 C 148.328125 231.535156 151.445312 229.589844 151.492188 226.808594 C 151.492188 226.808594 152.699219 230.214844 148.328125 231.535156 Z M 344.453125 160.296875 C 331.046875 145.152344 266.96875 69.917969 261.886719 66.441406 C 256.804688 62.964844 244.90625 61.453125 244.90625 61.453125 C 244.90625 61.453125 239.921875 60.980469 235.699219 64.453125 C 231.476562 67.929688 226.511719 82.332031 226.265625 88.289062 C 226.171875 90.554688 226.085938 95.570312 226.097656 101.074219 C 219.882812 119.023438 204.667969 141.5625 203.8125 143.421875 C 203.8125 143.421875 204.269531 143.933594 205.089844 144.777344 C 204.410156 145.875 203.964844 146.613281 203.835938 146.890625 C 203.835938 146.890625 217.820312 162.53125 231.972656 166.007812 C 231.972656 166.007812 241.472656 153.367188 249.765625 138.304688 C 260.605469 145.898438 271.464844 153.851562 272.332031 156.699219 C 274.070312 162.410156 272.9375 164.734375 276.695312 167.46875 C 280.449219 170.199219 277.480469 174.46875 277.234375 175.460938 C 276.984375 176.453125 276.558594 183.164062 278.078125 186.640625 C 279.597656 190.113281 275.566406 196.324219 278.078125 202.53125 C 278.078125 202.53125 305.71875 223.117188 359.351562 200.769531 C 359.351562 200.769531 357.863281 175.445312 344.453125 160.296875 Z M 384.921875 408.058594 C 377.027344 392.570312 343.292969 332.660156 318.316406 288.726562 L 273.652344 423.046875 C 306.746094 418.53125 367.363281 410.285156 384.921875 408.058594 Z M 270.964844 409.941406 L 280.164062 382.273438 L 283.75 371.484375 L 283.699219 371.632812 L 312.542969 284.890625 L 146.945312 284.890625 C 146.34375 286.222656 145.75 287.546875 145.140625 288.894531 L 140.773438 298.605469 C 154.925781 310.683594 248.628906 390.835938 270.964844 409.941406 Z M 392.691406 412.5 L 389.769531 414.179688 C 386.710938 414.410156 301.339844 426.019531 268.714844 430.476562 L 268.386719 428.085938 L 265.273438 427.050781 L 268.679688 416.8125 C 256.242188 406.191406 151.726562 316.765625 137.917969 304.949219 C 116.0625 353.519531 92.554688 405.820312 91.742188 407.84375 L 85.445312 405.59375 C 85.875 404.304688 120.738281 326.804688 143.953125 275.238281 L 151.289062 275.238281 C 150.828125 276.261719 150.351562 277.316406 149.886719 278.355469 L 314.714844 278.355469 L 329.226562 234.71875 L 335.574219 236.828125 L 321.15625 280.1875 C 324.738281 286.484375 340.964844 315.035156 356.925781 343.433594 C 367.492188 362.234375 375.875 377.285156 381.835938 388.171875 C 393.964844 410.308594 393.890625 410.433594 392.691406 412.5 Z M 206.761719 149.898438 C 191.386719 168.375 155.871094 210.671875 152.765625 210.792969 C 148.796875 210.949219 137.871094 211.445312 136.628906 213.183594 C 136.628906 213.183594 138.964844 210.78125 152.105469 209.75 C 152.105469 209.75 161.171875 201.632812 181.472656 178.292969 C 201.328125 155.460938 206.761719 149.898438 206.761719 149.898438" fill="#f89f35"/></g><g id="change3_1"><path d="M 355.78125 202.191406 C 322.484375 215.167969 299.660156 211.449219 287.757812 207.226562 C 286.507812 210.949219 280.746094 239.921875 280.054688 257.164062 C 279.3125 275.667969 268.1875 315.179688 268.5625 323.601562 C 268.9375 332.023438 256.644531 379.6875 254.640625 386.976562 C 252.636719 394.265625 240.621094 418.109375 241.183594 424.691406 C 241.183594 424.691406 252.117188 437.015625 264.3125 437.929688 C 264.3125 437.929688 267.144531 433.234375 266.921875 432.113281 C 266.695312 430.992188 266.921875 429.3125 266.921875 429.3125 C 266.921875 429.3125 269.625 427.835938 269.28125 424.226562 C 268.9375 420.617188 301.523438 363.425781 300.230469 337.628906 C 300.230469 337.628906 302.613281 333.476562 301.617188 329.804688 C 300.976562 327.445312 301.761719 325.980469 302.402344 325.238281 C 302.867188 324.699219 303.257812 324.113281 303.5 323.445312 C 306.214844 315.9375 321.261719 274.839844 331.179688 258.566406 C 342.117188 240.621094 357.679688 220.964844 355.78125 202.191406 Z M 467.433594 410.015625 C 467.359375 400.5625 465.554688 391.519531 462.328125 383.175781 L 404.753906 405.882812 C 405.207031 407.1875 405.472656 408.574219 405.535156 410.015625 Z M 467.433594 411.269531 L 405.535156 411.269531 C 405.464844 412.886719 405.136719 414.433594 404.585938 415.871094 L 461.363281 440.527344 C 465.203125 431.523438 467.351562 421.640625 467.433594 411.269531 Z M 460.847656 441.671875 L 404.082031 417.019531 C 403.460938 418.292969 402.664062 419.460938 401.714844 420.496094 L 445.460938 464.238281 C 451.851562 457.742188 457.085938 450.105469 460.847656 441.671875 Z M 444.570312 465.128906 L 400.824219 421.382812 C 399.671875 422.441406 398.351562 423.320312 396.902344 423.96875 L 419.609375 481.535156 C 428.996094 477.730469 437.464844 472.121094 444.570312 465.128906 Z M 418.445312 481.996094 L 395.734375 424.421875 C 394.429688 424.875 393.042969 425.140625 391.601562 425.203125 L 391.601562 487.105469 C 401.054688 487.027344 410.097656 485.222656 418.445312 481.996094 Z M 390.347656 487.105469 L 390.347656 425.203125 C 388.730469 425.132812 387.183594 424.804688 385.746094 424.253906 L 361.085938 481.035156 C 370.089844 484.871094 379.976562 487.019531 390.347656 487.105469 Z M 359.945312 480.519531 L 384.597656 423.753906 C 383.324219 423.132812 382.15625 422.332031 381.121094 421.382812 L 337.375 465.128906 C 343.875 471.523438 351.511719 476.757812 359.945312 480.519531 Z M 336.488281 464.242188 L 380.234375 420.496094 C 379.175781 419.34375 378.296875 418.023438 377.648438 416.574219 L 320.078125 439.28125 C 323.882812 448.667969 329.492188 457.132812 336.488281 464.242188 Z M 319.617188 438.113281 L 377.191406 415.402344 C 376.742188 414.101562 376.476562 412.714844 376.414062 411.269531 L 314.511719 411.269531 C 314.585938 420.722656 316.390625 429.765625 319.617188 438.113281 Z M 314.511719 410.015625 L 376.414062 410.015625 C 376.484375 408.398438 376.808594 406.855469 377.363281 405.414062 L 320.578125 380.757812 C 316.742188 389.761719 314.59375 399.644531 314.511719 410.015625 Z M 321.097656 379.613281 L 377.863281 404.265625 C 378.484375 402.992188 379.285156 401.824219 380.234375 400.789062 L 336.488281 357.042969 C 330.09375 363.542969 324.859375 371.179688 321.097656 379.613281 Z M 337.375 356.15625 L 381.121094 399.902344 C 382.273438 398.84375 383.59375 397.964844 385.046875 397.316406 L 362.339844 339.746094 C 352.949219 343.554688 344.484375 349.160156 337.375 356.15625 Z M 363.503906 339.285156 L 386.214844 396.863281 C 387.515625 396.410156 388.902344 396.144531 390.347656 396.082031 L 390.347656 334.183594 C 380.894531 334.257812 371.851562 336.0625 363.503906 339.285156 Z M 391.601562 334.183594 L 391.601562 396.082031 C 393.21875 396.152344 394.761719 396.480469 396.199219 397.03125 L 420.859375 340.25 C 411.855469 336.414062 401.96875 334.265625 391.601562 334.183594 Z M 422.003906 340.769531 L 397.351562 397.535156 C 398.625 398.15625 399.792969 398.953125 400.824219 399.902344 L 444.570312 356.15625 C 438.070312 349.765625 430.4375 344.527344 422.003906 340.769531 Z M 445.460938 357.046875 L 401.714844 400.789062 C 402.773438 401.945312 403.652344 403.265625 404.300781 404.714844 L 461.867188 382.007812 C 458.0625 372.621094 452.453125 364.152344 445.460938 357.046875 Z M 476.984375 410.015625 L 476.984375 411.269531 L 473.625 411.269531 C 473.539062 422.515625 471.207031 433.234375 467.039062 442.992188 L 470.117188 444.332031 L 469.617188 445.480469 L 466.523438 444.136719 C 462.449219 453.289062 456.773438 461.570312 449.835938 468.613281 L 452.238281 471.019531 L 451.347656 471.90625 L 448.945312 469.503906 C 441.242188 477.089844 432.0625 483.171875 421.878906 487.292969 L 423.117188 490.425781 L 421.949219 490.886719 L 420.714844 487.753906 C 411.664062 491.257812 401.855469 493.21875 391.601562 493.292969 L 391.601562 496.65625 L 390.347656 496.65625 L 390.347656 493.292969 C 379.101562 493.210938 368.382812 490.878906 358.621094 486.710938 L 357.285156 489.785156 L 356.136719 489.285156 L 357.480469 486.195312 C 348.328125 482.121094 340.046875 476.441406 333 469.503906 L 330.597656 471.90625 L 329.710938 471.019531 L 332.113281 468.617188 C 324.523438 460.914062 318.441406 451.730469 314.320312 441.550781 L 311.191406 442.785156 L 310.730469 441.617188 L 313.859375 440.386719 C 310.359375 431.335938 308.398438 421.523438 308.320312 411.269531 L 304.960938 411.269531 L 304.960938 410.015625 L 308.320312 410.015625 C 308.40625 398.769531 310.738281 388.050781 314.902344 378.289062 L 311.828125 376.957031 L 312.328125 375.808594 L 315.421875 377.148438 C 319.496094 367.996094 325.171875 359.714844 332.113281 352.667969 L 329.710938 350.265625 L 330.597656 349.378906 L 333 351.78125 C 340.703125 344.191406 349.886719 338.113281 360.066406 333.992188 L 358.832031 330.859375 L 359.996094 330.398438 L 361.234375 333.53125 C 370.285156 330.027344 380.09375 328.066406 390.347656 327.992188 L 390.347656 324.632812 L 391.601562 324.632812 L 391.601562 327.992188 C 402.847656 328.078125 413.566406 330.410156 423.324219 334.574219 L 424.660156 331.5 L 425.808594 332 L 424.46875 335.09375 C 433.617188 339.164062 441.902344 344.84375 448.945312 351.78125 L 451.347656 349.378906 L 452.238281 350.265625 L 449.832031 352.671875 C 457.421875 360.375 463.503906 369.554688 467.621094 379.734375 L 470.757812 378.5 L 471.21875 379.667969 L 468.085938 380.902344 C 471.585938 389.953125 473.546875 399.761719 473.625 410.015625 Z M 165.820312 405.640625 C 165.742188 396.1875 163.9375 387.144531 160.714844 378.796875 L 103.136719 401.507812 C 103.589844 402.8125 103.855469 404.195312 103.917969 405.640625 Z M 165.820312 406.894531 L 103.917969 406.894531 C 103.847656 408.511719 103.519531 410.058594 102.96875 411.492188 L 159.75 436.152344 C 163.589844 427.148438 165.734375 417.265625 165.820312 406.894531 Z M 159.234375 437.296875 L 102.46875 412.644531 C 101.84375 413.917969 101.046875 415.085938 100.097656 416.117188 L 143.84375 459.863281 C 150.238281 453.367188 155.472656 445.730469 159.234375 437.296875 Z M 142.957031 460.753906 L 99.210938 417.007812 C 98.054688 418.066406 96.738281 418.945312 95.285156 419.59375 L 117.992188 477.160156 C 127.382812 473.355469 135.847656 467.746094 142.957031 460.753906 Z M 116.828125 477.621094 L 94.121094 420.046875 C 92.816406 420.5 91.429688 420.765625 89.984375 420.828125 L 89.984375 482.730469 C 99.4375 482.652344 108.480469 480.847656 116.828125 477.621094 Z M 88.730469 482.730469 L 88.730469 420.828125 C 87.113281 420.757812 85.570312 420.429688 84.132812 419.878906 L 59.472656 476.660156 C 68.476562 480.496094 78.363281 482.644531 88.730469 482.730469 Z M 58.328125 476.144531 L 82.980469 419.375 C 81.707031 418.753906 80.539062 417.957031 79.503906 417.007812 L 35.757812 460.753906 C 42.257812 467.144531 49.894531 472.382812 58.328125 476.144531 Z M 34.871094 459.863281 L 78.617188 416.117188 C 77.558594 414.964844 76.679688 413.644531 76.035156 412.195312 L 18.464844 434.902344 C 22.269531 444.289062 27.878906 452.757812 34.871094 459.863281 Z M 18.003906 433.738281 L 75.578125 411.027344 C 75.125 409.722656 74.859375 408.335938 74.796875 406.894531 L 12.894531 406.894531 C 12.972656 416.347656 14.777344 425.390625 18.003906 433.738281 Z M 12.894531 405.640625 L 74.796875 405.640625 C 74.867188 404.023438 75.195312 402.480469 75.746094 401.039062 L 18.964844 376.382812 C 15.128906 385.386719 12.980469 395.269531 12.894531 405.640625 Z M 19.484375 375.238281 L 76.25 399.890625 C 76.871094 398.617188 77.667969 397.449219 78.617188 396.414062 L 34.871094 352.667969 C 28.476562 359.167969 23.242188 366.804688 19.484375 375.238281 Z M 35.757812 351.78125 L 79.503906 395.527344 C 80.660156 394.46875 81.976562 393.589844 83.429688 392.941406 L 60.722656 335.371094 C 51.335938 339.179688 42.867188 344.785156 35.757812 351.78125 Z M 61.886719 334.910156 L 84.597656 392.484375 C 85.902344 392.035156 87.289062 391.769531 88.730469 391.707031 L 88.730469 329.804688 C 79.277344 329.882812 70.234375 331.6875 61.886719 334.910156 Z M 89.984375 329.804688 L 89.984375 391.707031 C 91.601562 391.777344 93.148438 392.105469 94.585938 392.65625 L 119.246094 335.875 C 110.242188 332.039062 100.355469 329.890625 89.984375 329.804688 Z M 120.386719 336.394531 L 95.734375 393.15625 C 97.007812 393.777344 98.175781 394.578125 99.210938 395.527344 L 142.957031 351.78125 C 136.457031 345.386719 128.820312 340.152344 120.386719 336.394531 Z M 143.84375 352.667969 L 100.097656 396.414062 C 101.15625 397.566406 102.035156 398.886719 102.683594 400.339844 L 160.253906 377.628906 C 156.445312 368.242188 150.839844 359.777344 143.84375 352.667969 Z M 175.371094 405.640625 L 175.371094 406.894531 L 172.007812 406.894531 C 171.925781 418.140625 169.59375 428.859375 165.425781 438.617188 L 168.5 439.953125 L 168 441.105469 L 164.90625 439.761719 C 160.835938 448.914062 155.15625 457.195312 148.21875 464.238281 L 150.621094 466.644531 L 149.734375 467.527344 L 147.332031 465.128906 C 139.628906 472.714844 130.445312 478.796875 120.265625 482.917969 L 121.5 486.050781 L 120.335938 486.511719 L 119.097656 483.378906 C 110.050781 486.882812 100.238281 488.839844 89.984375 488.917969 L 89.984375 492.277344 L 88.730469 492.277344 L 88.730469 488.917969 C 77.484375 488.835938 66.765625 486.503906 57.007812 482.335938 L 55.671875 485.410156 L 54.523438 484.910156 L 55.863281 481.816406 C 46.714844 477.742188 38.429688 472.066406 31.386719 465.128906 L 28.980469 467.527344 L 28.09375 466.644531 L 30.496094 464.238281 C 22.910156 456.535156 16.828125 447.355469 12.707031 437.171875 L 9.574219 438.410156 L 9.113281 437.242188 L 12.246094 436.007812 C 8.742188 426.957031 6.78125 417.148438 6.707031 406.894531 L 3.34375 406.894531 L 3.34375 405.640625 L 6.707031 405.640625 C 6.789062 394.394531 9.121094 383.675781 13.289062 373.914062 L 10.214844 372.578125 L 10.714844 371.429688 L 13.808594 372.773438 C 17.878906 363.621094 23.558594 355.339844 30.496094 348.296875 L 28.09375 345.890625 L 28.980469 345.003906 L 31.386719 347.40625 C 39.089844 339.820312 48.269531 333.738281 58.449219 329.617188 L 57.214844 326.484375 L 58.382812 326.023438 L 59.617188 329.15625 C 68.667969 325.652344 78.476562 323.691406 88.730469 323.617188 L 88.730469 320.257812 L 89.984375 320.257812 L 89.984375 323.617188 C 101.230469 323.699219 111.949219 326.03125 121.710938 330.199219 L 123.046875 327.125 L 124.195312 327.625 L 122.851562 330.71875 C 132.003906 334.789062 140.285156 340.46875 147.332031 347.40625 L 149.734375 345.003906 L 150.621094 345.890625 L 148.21875 348.292969 C 155.804688 355.996094 161.886719 365.179688 166.007812 375.359375 L 169.140625 374.125 L 169.601562 375.292969 L 166.46875 376.527344 C 169.972656 385.578125 171.933594 395.386719 172.011719 405.640625 Z M 158.589844 227.65625 L 166.382812 232.007812 C 169.203125 233.582031 170.296875 237.089844 168.871094 239.988281 L 168.460938 240.824219 L 152.246094 273.796875 L 146.671875 269.992188 L 160.605469 241.640625 C 161.730469 239.355469 160.867188 236.585938 158.640625 235.34375 L 154.425781 232.988281 C 155.941406 231.113281 157.449219 229.167969 158.589844 227.65625" fill="#6a6b6c"/></g><g id="change4_1"><path d="M 226.75 102.644531 C 222.75 117.273438 205.089844 144.777344 205.089844 144.777344 C 224.574219 120 226.75 102.644531 226.75 102.644531 Z M 243.765625 75.40625 C 228.652344 88.589844 228.652344 99.410156 228.652344 99.410156 C 229.390625 90.816406 243.765625 75.40625 243.765625 75.40625 Z M 288.363281 106.226562 C 287.621094 117.636719 266.84375 129.277344 267.914062 128.746094 C 288.648438 118.503906 288.363281 106.226562 288.363281 106.226562 Z M 251.417969 75.40625 C 257.589844 80.890625 263.027344 95.261719 261.886719 105.632812 C 260.746094 116.003906 251.417969 135.238281 251.417969 135.238281 C 277.441406 96.539062 251.417969 75.40625 251.417969 75.40625 Z M 289.695312 189.941406 C 285.515625 190.304688 280.804688 187.867188 280.804688 187.867188 C 283.472656 192.902344 289.695312 189.941406 289.695312 189.941406 Z M 284.214844 199.480469 C 284.214844 199.480469 287.769531 200.460938 289.695312 198.238281 C 291.621094 196.015625 296.363281 186.089844 303.625 182.53125 C 303.625 182.53125 296.9375 184.878906 292.722656 191.113281 C 288.511719 197.351562 288.957031 200.578125 284.214844 199.480469 Z M 317.109375 165.148438 C 305.699219 172.707031 279.328125 172.195312 279.769531 172.261719 C 307.773438 176.558594 317.109375 165.148438 317.109375 165.148438 Z M 297.085938 153.75 C 288.046875 159.640625 274.265625 158.824219 274.265625 158.824219 C 285.230469 162.527344 297.085938 153.75 297.085938 153.75 Z M 234.734375 446.335938 C 224.296875 446.109375 221.003906 443.34375 221.003906 443.34375 C 215.847656 445.492188 206.242188 446.40625 205.214844 446.96875 C 204.113281 447.570312 203.429688 452.101562 209.195312 453.609375 C 214.960938 455.121094 234.390625 454.296875 236.894531 454.984375 C 239.402344 455.667969 253.609375 458.40625 258.382812 456.902344 C 258.382812 456.902344 259.207031 448.183594 257.128906 443.277344 C 253.851562 443.105469 245.171875 446.558594 234.734375 446.335938 Z M 372.039062 211.410156 C 368.882812 208.3125 364.199219 207.378906 360.105469 209.058594 C 358.660156 209.652344 357.113281 210.3125 355.480469 211.015625 C 354.066406 219.964844 349.535156 229.015625 344.203125 237.90625 L 376.105469 237.90625 C 378.125 237.90625 379.851562 236.421875 380.132812 234.421875 C 380.230469 233.726562 380.304688 233.082031 380.328125 232.648438 C 380.726562 224.78125 377.761719 217.027344 372.039062 211.410156 Z M 157.039062 271.894531 C 157.039062 270.046875 155.539062 268.550781 153.691406 268.550781 L 141.695312 268.550781 C 139.847656 268.550781 138.347656 270.046875 138.347656 271.894531 C 138.347656 273.742188 139.847656 275.238281 141.695312 275.238281 L 153.691406 275.238281 C 155.539062 275.238281 157.039062 273.742188 157.039062 271.894531 Z M 304.960938 355.023438 L 297.988281 354.238281 C 296.875 358.601562 295.410156 363.21875 293.730469 367.917969 L 304.1875 369.367188 C 306.769531 369.726562 309.203125 367.851562 309.335938 365.25 C 309.664062 358.675781 304.960938 355.023438 304.960938 355.023438 Z M 259.402344 360.21875 C 260.089844 359.917969 260.84375 359.597656 261.648438 359.265625 C 261.320312 360.632812 260.992188 361.992188 260.664062 363.332031 L 259.820312 363.214844 C 258.25 362.996094 257.949219 360.851562 259.402344 360.21875" fill="#8c4b2d"/></g><g clip-path="url(#a)" id="change5_1"><path d="M 250.574219 463.910156 L 211.984375 460.710938 C 210.511719 460.609375 209.402344 459.335938 209.5 457.863281 L 209.59375 456.519531 C 209.691406 455.046875 210.964844 453.933594 212.433594 454.03125 L 251.027344 457.238281 C 252.496094 457.335938 253.609375 458.609375 253.511719 460.082031 L 253.421875 461.429688 C 253.320312 462.898438 252.046875 464.011719 250.574219 463.910156 Z M 204.679688 28.996094 C 204.679688 28.996094 204.773438 29.519531 205.535156 29.757812 C 206.296875 29.996094 212.046875 29.804688 212.949219 30.421875 C 212.949219 30.421875 210.382812 27.902344 204.679688 28.996094 Z M 214.414062 33.847656 C 211.210938 31.421875 205.21875 32.832031 205.21875 32.832031 C 205.621094 33.640625 206.574219 33.644531 206.96875 33.605469 C 207 33.773438 207.039062 33.941406 207.089844 34.113281 C 207.503906 35.480469 208.492188 36.390625 209.300781 36.148438 C 210.105469 35.90625 210.425781 34.601562 210.011719 33.230469 C 210.011719 33.226562 210.007812 33.222656 210.007812 33.21875 C 212.433594 33.203125 214.414062 33.847656 214.414062 33.847656 Z M 299.792969 326.328125 C 299.792969 326.328125 288.925781 325.824219 285.390625 323.675781 C 285.390625 323.675781 291.453125 327.464844 299.792969 326.328125 Z M 282.933594 334.703125 C 285.851562 337.847656 297.980469 336.835938 297.980469 336.835938 M 266.921875 423.046875 C 266.921875 423.046875 254.015625 416.167969 250.6875 410.644531 C 250.6875 410.644531 258.316406 422.007812 266.921875 423.046875 Z M 265.273438 428.726562 C 265.613281 428.773438 251.492188 423.976562 248.796875 419.035156 C 248.796875 419.035156 253.003906 427.078125 265.273438 428.726562 Z M 203.257812 22.601562 C 203.433594 21.277344 203.585938 20.289062 203.585938 20.289062 C 203.585938 20.289062 209.726562 29.328125 217.914062 30.695312 C 222.519531 31.460938 224.53125 33.957031 226.628906 35.75 C 226.863281 35.949219 227.097656 36.140625 227.335938 36.316406 C 227.8125 36.675781 228.304688 36.984375 228.851562 37.21875 C 229.9375 37.6875 231.21875 37.859375 232.921875 37.519531 C 232.921875 37.519531 233.09375 37.496094 233.378906 37.484375 C 233.449219 37.484375 233.527344 37.480469 233.613281 37.480469 C 233.78125 37.480469 233.972656 37.480469 234.179688 37.492188 C 234.410156 37.503906 234.660156 37.527344 234.925781 37.566406 C 235.132812 37.59375 235.34375 37.632812 235.5625 37.683594 C 236.179688 37.828125 236.824219 38.070312 237.402344 38.460938 C 237.46875 38.503906 237.53125 38.546875 237.59375 38.59375 C 239.425781 39.980469 240.386719 43.054688 237.015625 49.796875 C 239.730469 55.980469 243.316406 59.835938 245.066406 61.476562 C 246.484375 61.667969 257.148438 63.199219 261.886719 66.441406 C 262.65625 66.96875 264.792969 69.15625 267.894531 72.523438 C 268.28125 72.746094 268.683594 72.972656 269.117188 73.210938 C 274.394531 75.726562 279.898438 76.296875 284.019531 76.246094 C 286.148438 74.664062 287.910156 72.789062 289.351562 70.84375 C 275.097656 73.222656 264.789062 59.390625 264.789062 59.390625 C 273.90625 69.769531 290.246094 69.117188 290.277344 69.113281 C 295.367188 63.003906 295.367188 57.644531 295.367188 57.644531 C 287.21875 61.59375 277.671875 56.609375 269.632812 50.269531 C 272.023438 50.179688 274.796875 50.390625 277.8125 51.191406 C 287.429688 53.742188 292.058594 47.988281 292.058594 47.988281 C 292.058594 47.988281 282.503906 52.558594 270.871094 45.375 C 259.238281 38.195312 249.738281 42.441406 249.738281 42.441406 C 249.738281 42.441406 249.734375 42.445312 249.734375 42.445312 C 253.710938 32.472656 257.4375 20.183594 255.46875 12.683594 C 251.722656 -1.578125 240.113281 3.015625 240.113281 3.015625 C 230.804688 -4.964844 217.992188 5.070312 204.679688 8.210938 C 193.035156 10.960938 191.136719 8.902344 190.84375 8.34375 C 191.175781 9.160156 193.421875 13.984375 200.414062 14.453125 C 200.414062 14.453125 196.300781 16.359375 191.945312 13.765625 C 195.175781 23.121094 203.257812 22.601562 203.257812 22.601562 Z M 274.855469 80.230469 C 277.34375 79.769531 279.550781 78.949219 281.496094 77.871094 C 276.785156 76.976562 272.316406 74.949219 269.117188 73.210938 C 268.746094 73.03125 268.378906 72.84375 268.011719 72.648438 C 269.949219 74.757812 272.261719 77.320312 274.855469 80.230469 Z M 145.5625 217.523438 C 141.953125 217.523438 139.023438 220.453125 139.023438 224.066406 C 139.023438 227.675781 141.953125 230.605469 145.5625 230.605469 C 149.175781 230.605469 152.105469 227.675781 152.105469 224.066406 C 152.105469 220.453125 149.175781 217.523438 145.5625 217.523438 Z M 391.511719 405.332031 C 388.578125 405.035156 385.960938 407.171875 385.660156 410.105469 C 385.363281 413.039062 387.503906 415.65625 390.4375 415.957031 C 393.371094 416.253906 395.988281 414.113281 396.285156 411.179688 C 396.582031 408.246094 394.445312 405.628906 391.511719 405.332031 Z M 89.359375 400.929688 C 86.410156 400.929688 84.019531 403.316406 84.019531 406.269531 C 84.019531 409.214844 86.410156 411.605469 89.359375 411.605469 C 92.304688 411.605469 94.699219 409.214844 94.699219 406.269531 C 94.699219 403.316406 92.304688 400.929688 89.359375 400.929688 Z M 473.640625 410.644531 C 473.640625 456.226562 436.554688 493.308594 390.972656 493.308594 C 345.390625 493.308594 308.308594 456.226562 308.308594 410.644531 C 308.308594 365.0625 345.390625 327.976562 390.972656 327.976562 C 436.554688 327.976562 473.640625 365.0625 473.640625 410.644531 Z M 480.332031 410.644531 C 480.332031 361.371094 440.246094 321.285156 390.972656 321.285156 C 341.703125 321.285156 301.617188 361.371094 301.617188 410.644531 C 301.617188 459.914062 341.703125 500 390.972656 500 C 440.246094 500 480.332031 459.914062 480.332031 410.644531 Z M 172.023438 406.269531 C 172.023438 451.851562 134.941406 488.933594 89.359375 488.933594 C 43.773438 488.933594 6.691406 451.851562 6.691406 406.269531 C 6.691406 360.683594 43.773438 323.601562 89.359375 323.601562 C 134.941406 323.601562 172.023438 360.683594 172.023438 406.269531 Z M 178.714844 406.269531 C 178.714844 356.996094 138.632812 316.910156 89.359375 316.910156 C 40.085938 316.910156 0 356.996094 0 406.269531 C 0 455.539062 40.085938 495.625 89.359375 495.625 C 138.632812 495.625 178.714844 455.539062 178.714844 406.269531 Z M 243.128906 426.679688 C 241.886719 425.484375 241.183594 424.691406 241.183594 424.691406 C 240.824219 420.515625 245.539062 409.378906 249.539062 399.9375 C 241.867188 405.71875 236.894531 414.90625 236.894531 425.234375 C 236.894531 428.511719 237.394531 431.671875 238.324219 434.644531 C 240.480469 431.84375 243.128906 426.679688 243.128906 426.679688 Z M 281.84375 396.496094 C 279.726562 401.097656 277.6875 405.390625 275.890625 409.160156 C 277.15625 408.5625 278.5625 408.21875 280.054688 408.21875 C 285.453125 408.21875 289.84375 412.609375 289.84375 418.007812 C 289.84375 423.40625 285.453125 427.796875 280.054688 427.796875 C 275.511719 427.796875 271.6875 424.679688 270.59375 420.472656 C 269.71875 422.460938 269.238281 423.769531 269.28125 424.226562 C 269.457031 426.058594 268.84375 427.339844 268.199219 428.15625 C 268.332031 428.152344 268.460938 428.136719 268.59375 428.136719 C 273.992188 428.136719 278.382812 432.527344 278.382812 437.929688 C 278.382812 443.328125 273.992188 447.71875 268.59375 447.71875 C 263.65625 447.71875 259.570312 444.042969 258.90625 439.285156 L 257.128906 443.277344 C 258.648438 446.867188 258.613281 452.484375 258.488281 455.246094 C 261.65625 456.3125 265.039062 456.902344 268.5625 456.902344 C 286.023438 456.902344 300.230469 442.695312 300.230469 425.234375 C 300.230469 412.515625 292.6875 401.527344 281.84375 396.496094 Z M 221.824219 278.355469 L 258.023438 278.355469 C 255.929688 277.199219 253.738281 276.144531 251.414062 275.238281 C 251.414062 275.238281 266.003906 263.636719 280.066406 256.890625 C 280.808594 239.617188 286.511719 210.933594 287.757812 207.226562 C 281.328125 204.949219 278.078125 202.53125 278.078125 202.53125 C 278.0625 202.492188 278.054688 202.453125 278.039062 202.414062 C 277.765625 202.421875 277.617188 202.425781 277.617188 202.425781 C 277.980469 202.621094 227.488281 238.121094 219.992188 247.347656 C 212.5 256.570312 209.90625 261.792969 213.941406 268.550781 C 214.726562 269.867188 217.640625 273.441406 221.824219 278.355469 Z M 291.34375 208.375 C 291.363281 208.378906 291.386719 208.386719 291.410156 208.394531 C 291.386719 208.386719 291.363281 208.378906 291.34375 208.375 Z M 288.875 207.609375 C 288.910156 207.621094 288.945312 207.632812 288.980469 207.644531 C 288.945312 207.632812 288.910156 207.621094 288.875 207.609375 Z M 268.5625 323.601562 C 268.363281 319.128906 271.402344 305.902344 274.410156 291.707031 C 272.316406 289.332031 270.011719 287.035156 267.476562 284.890625 L 227.445312 284.890625 C 239.320312 298.59375 256.34375 317.691406 267.800781 330.714844 C 268.335938 327.503906 268.625 325.003906 268.5625 323.601562 Z M 290.210938 208.039062 C 290.148438 208.019531 290.085938 208 290.023438 207.980469 C 290.085938 208 290.148438 208.019531 290.210938 208.039062" fill="#3e3b39"/></g></g></svg>